<svg xmlns="http://www.w3.org/2000/svg" width="15" height="16"><path d="M14.063 16a.981.981 0 01-.656-.3l-2.813-2.98a5.986 5.986 0 01-3.938 1.392 6.425 6.425 0 01-4.7-2.075A7.222 7.222 0 010 7.056a7.222 7.222 0 011.957-4.981A6.425 6.425 0 016.656 0a6.293 6.293 0 014.652 2.075 7.3 7.3 0 011.91 4.981 7.089 7.089 0 01-1.313 4.174l2.812 3.08a1 1 0 010 1.392.979.979 0 01-.654.298zM6.656 1.987a4.937 4.937 0 00-4.781 5.069 4.883 4.883 0 004.782 4.968 4.883 4.883 0 004.782-4.968 4.937 4.937 0 00-4.783-5.069z" fill="#fff"/></svg>