<svg xmlns="http://www.w3.org/2000/svg" width="18" height="18.002"><path d="M10.911 4.058a3.826 3.826 0 013.026 3.02M10.911 1a6.887 6.887 0 016.09 6.07m-.766 6.1v2.294a1.531 1.531 0 01-1.67 1.529 15.178 15.178 0 01-6.61-2.347 14.922 14.922 0 01-4.6-4.587 15.111 15.111 0 01-2.348-6.628 1.53 1.53 0 011.524-1.666h2.3a1.531 1.531 0 011.53 1.314 9.8 9.8 0 00.536 2.148 1.527 1.527 0 01-.345 1.613l-.973.971a12.244 12.244 0 004.6 4.587l.973-.971a1.534 1.534 0 011.616-.344 9.851 9.851 0 002.152.535 1.53 1.53 0 011.317 1.552z" fill="none" stroke="#696969" stroke-linecap="round" stroke-linejoin="round" stroke-width="2"/></svg>